<svg width="120" height="120" viewBox="0 0 120 120" fill="none" xmlns="http://www.w3.org/2000/svg">
<g clip-path="url(#clip0)">
<path d="M55.2776 0.0308137C54.9972 0.0603273 54.097 0.163625 53.2854 0.237409C41.7451 1.44747 30.3818 6.33197 21.1142 14.0941C19.4023 15.5107 15.5064 19.4065 14.0897 21.1183C6.41579 30.2823 1.92953 40.5678 0.276702 52.7421C-0.0922339 55.4426 -0.0922339 64.5623 0.276702 67.2628C1.92953 79.4372 6.41579 89.7227 14.0897 98.8867C15.5064 100.598 19.4023 104.494 21.1142 105.911C30.2785 113.584 40.5645 118.071 52.7393 119.723C55.44 120.092 64.56 120.092 67.2607 119.723C79.4355 118.071 89.7215 113.584 98.8858 105.911C100.598 104.494 104.494 100.598 105.91 98.8867C113.584 89.7227 118.07 79.4372 119.723 67.2628C120.092 64.5623 120.092 55.4426 119.723 52.7421C118.07 40.5678 113.584 30.2823 105.91 21.1183C104.494 19.4065 100.598 15.5107 98.8858 14.0941C89.751 6.45003 79.3617 1.90493 67.3492 0.296436C66.0505 0.119355 64.1616 0.0455705 60.6641 0.0160569C57.993 -0.0134567 55.558 0.0013001 55.2776 0.0308137ZM56.0155 6.40575C56.0155 8.1323 56.1336 11.8805 56.2959 15.4369C56.3844 17.1782 56.4877 19.6721 56.532 20.9707C56.6943 25.5748 57.1813 37.6607 57.2551 38.7379L57.3289 39.8152L56.6648 39.7414C56.2959 39.7119 55.9565 39.6233 55.8974 39.5791C55.8532 39.52 55.7499 38.5018 55.6908 37.3065C55.4252 32.0531 54.5545 11.6739 54.466 8.69306L54.3774 5.41705L54.7906 5.35802C55.012 5.32851 55.3809 5.28424 55.617 5.26948L56.0155 5.25472V6.40575ZM70.1384 6.05159C70.1531 6.06635 70.1974 10.5229 70.2417 15.9534C70.3007 21.3987 70.3745 26.2832 70.4187 26.8144C70.463 27.3604 70.4483 27.8326 70.3745 27.8622C70.3154 27.9064 69.9465 27.9064 69.5776 27.8622L68.8987 27.8031L68.7954 23.5089C68.7364 21.133 68.6626 18.5063 68.6331 17.6504C68.515 15.0385 68.4117 6.16965 68.5003 5.94829C68.5593 5.78597 68.7216 5.77121 69.3414 5.87451C69.7694 5.96305 70.1236 6.03683 70.1384 6.05159ZM36.0044 10.9951C36.093 11.1279 36.7866 19.2589 37.6425 29.8986C37.9229 33.514 38.2033 36.8195 38.2476 37.2327C38.3213 37.9853 38.3066 38.0148 37.8343 38.31C37.5687 38.4723 37.3031 38.6051 37.244 38.6051C37.1998 38.6051 37.1112 38.2214 37.067 37.7492C36.8604 35.8308 36.0635 26.5636 35.5027 19.864C35.178 15.9239 34.8829 12.397 34.8386 12.0133C34.7648 11.364 34.7796 11.305 35.1633 11.0984C35.6355 10.8476 35.9011 10.8033 36.0044 10.9951ZM76.6316 13.9612C77.0448 14.1088 77.0891 14.1826 77.1776 15.0237C77.3252 16.4994 77.2809 23.5532 77.1186 23.5532C76.6906 23.5532 75.8052 23.0514 75.7314 22.7711C75.6871 22.594 75.6429 20.4985 75.6429 18.1227C75.6429 13.3267 75.5838 13.6071 76.6316 13.9612ZM49.3747 14.6548C49.3747 15.0532 49.478 17.252 49.596 19.5688C49.7141 21.8856 49.8469 24.8223 49.9059 26.0913C50.0092 28.659 50.0387 28.5705 49.05 28.6295C48.563 28.6443 48.563 28.6443 48.5335 27.9064C48.504 27.4932 48.4302 26.2094 48.3416 25.0288C48.2678 23.8483 48.0908 21.2954 47.9727 19.3475C47.8546 17.3996 47.7071 15.4664 47.6628 15.0532C47.5742 14.3154 47.589 14.2859 47.9875 14.1383C48.2236 14.0498 48.6368 13.976 48.9024 13.976C49.3747 13.9612 49.3747 13.9612 49.3747 14.6548ZM90.3117 16.6765L90.8135 16.8831L90.9168 18.8605C90.9611 19.9377 90.9906 22.2693 90.9611 24.0254L90.9168 27.2424L90.297 26.9325L89.6772 26.6373L89.6329 21.7381C89.6034 19.0376 89.6181 16.7503 89.6477 16.647C89.7067 16.4256 89.7067 16.4256 90.3117 16.6765ZM63.3647 18.6096C63.4532 18.6982 63.6598 25.8552 63.6746 29.4854L63.6894 31.6694L62.9958 31.5661C62.5973 31.5218 62.2726 31.4776 62.2579 31.4628C62.2136 31.4333 61.7709 20.4985 61.7709 19.436V18.344L62.5235 18.4326C62.9515 18.4916 63.3204 18.5654 63.3647 18.6096ZM97.351 19.6574C97.5281 19.864 97.5576 23.0957 97.6019 40.9219C97.6462 61.3896 97.6462 61.9209 97.3806 61.9209C97.2182 61.9209 96.9969 61.8323 96.864 61.729C96.6427 61.5667 96.6132 59.7811 96.5394 42.2943C96.4804 31.6989 96.4066 22.0775 96.3623 20.9117L96.2738 18.7867L96.7017 19.0966C96.9526 19.2737 97.233 19.5246 97.351 19.6574ZM84.1136 22.6825C84.1874 22.7415 84.2612 23.5827 84.276 24.5419C84.3497 27.8031 84.3645 47.7986 84.2907 47.8576C84.2612 47.8871 83.9956 47.8134 83.7004 47.6953L83.1692 47.474V22.3726L83.5824 22.4612C83.8037 22.5202 84.0398 22.6087 84.1136 22.6825ZM43.3831 23.5089C43.4274 23.9073 43.5012 24.8075 43.5455 25.5453C43.5897 26.2684 43.693 27.9212 43.7816 29.205C43.9587 31.8022 43.9292 31.9645 43.088 31.9645C42.6453 31.9645 42.5862 31.9203 42.5272 31.4776C42.3796 30.6069 41.8631 23.3466 41.9369 23.2285C42.0107 23.1252 42.7781 22.8596 43.1323 22.8301C43.2208 22.8153 43.3389 23.1252 43.3831 23.5089ZM18.9744 27.2719C19.1367 28.8361 19.4614 32.1121 19.6975 34.547C19.9483 36.9819 20.155 39.0478 20.155 39.1364C20.155 39.3134 19.0186 39.8742 18.9006 39.7561C18.8268 39.6824 17.351 26.6226 17.351 26.0323C17.351 25.6781 18.4874 24.1877 18.6349 24.35C18.6792 24.3795 18.8268 25.6929 18.9744 27.2719ZM76.8382 28.8213L77.2662 29.0722L77.2809 32.2597C77.2957 34.001 77.3252 35.9489 77.3252 36.5834C77.3547 37.9115 77.1924 38.1329 76.3955 37.8525L75.938 37.6902V36.4211C75.938 35.7128 75.8937 33.6616 75.8347 31.8465L75.7462 28.5705H76.0856C76.2627 28.5705 76.6021 28.6885 76.8382 28.8213ZM25.4529 34.547C25.7185 37.3803 26.1465 42.1615 26.4269 45.1719L26.9286 50.6319L26.3531 51.2074L25.7923 51.7829L25.689 50.6172C25.63 49.9679 25.3348 46.9575 25.0249 43.9176C24.715 40.8777 24.2723 36.4654 24.0509 34.119L23.6377 29.8691L24.2132 29.3378C24.7298 28.8509 24.7888 28.8361 24.8921 29.1017C24.9511 29.2493 25.202 31.6989 25.4529 34.547ZM14.3996 36.3326C14.7242 39.2397 15.5802 46.9722 16.318 53.5095C17.0559 60.0468 17.7495 66.3479 17.8823 67.5285C18.0004 68.709 18.207 70.4946 18.325 71.5128C18.5316 73.2393 18.5316 73.3574 18.2955 73.5345C17.9413 73.8001 17.7938 73.7706 17.7938 73.4607C17.7938 73.3279 17.6609 72.2064 17.4986 70.9963C17.233 68.9746 16.7903 65.551 15.8015 57.8627C15.5949 56.3133 15.1965 53.2291 14.9161 51.0008C14.6209 48.7726 14.193 45.4523 13.9568 43.6224C13.7207 41.7926 13.3223 38.6641 13.0714 36.6425C12.8058 34.6355 12.6434 32.85 12.6877 32.6581C12.791 32.2597 13.6617 30.8725 13.7502 30.9611C13.7797 31.0054 14.0749 33.4107 14.3996 36.3326ZM9.88379 42.6927C10.1051 44.4636 10.5184 47.6953 10.7987 49.8941C11.0791 52.0781 11.4333 54.8081 11.5956 55.9444L11.876 58.0103L11.5661 58.2759C11.389 58.4235 11.212 58.4825 11.1529 58.4235C11.0939 58.3645 10.9758 57.7742 10.8873 57.1249C10.7987 56.4756 10.2527 52.6831 9.66242 48.7135L8.61465 41.4827L8.95407 40.4792C9.13116 39.9332 9.323 39.4905 9.36728 39.4905C9.4263 39.4905 9.64767 40.9367 9.88379 42.6927ZM90.902 40.7596C91.1087 40.9662 91.1382 41.8811 91.1382 48.6545V56.3133H90.725C89.8248 56.3133 89.8395 56.5346 89.7805 48.1528L89.7362 40.5235H90.2085C90.4593 40.5235 90.784 40.6268 90.902 40.7596ZM58.598 43.4011C61.9332 43.9028 64.8404 44.8325 67.7181 46.3082C69.5776 47.2674 70.463 47.9314 72.5291 49.9088C75.5986 52.8454 77.4875 55.4131 79.2584 59.0433C81.841 64.3262 82.8445 69.0041 84.1136 81.5474C84.6892 87.1698 85.4418 97.3667 85.6041 101.543C85.6484 102.753 85.7517 104.745 85.8402 105.97C86.0026 108.567 86.1944 108.213 83.907 109.32C80.7342 110.854 77.6794 111.917 73.6506 112.906C68.7216 114.116 65.534 114.499 60.6641 114.514L57.1223 114.529L57.1518 112.832C57.1518 111.902 57.2404 109.733 57.3289 108.036C57.7716 99.8163 57.6831 89.4423 57.1075 83.6872C56.7829 80.3816 56.1483 76.3678 55.7941 75.4824C55.7203 75.2905 56.0598 75.1282 57.5208 74.6265C60.1918 73.6968 62.5088 72.531 62.8629 71.9555C63.4975 70.8635 62.3612 69.2993 60.915 69.2993C60.6641 69.2993 59.9115 69.5649 59.2179 69.8748C55.9122 71.3947 49.2861 73.1803 45.4639 73.5787C42.8224 73.8591 38.7198 73.6968 35.8716 73.1803C34.3221 72.8999 31.5477 71.8522 29.2308 70.6569C26.5597 69.2698 24.9216 67.4252 24.4346 65.2411C24.169 64.0606 24.2428 61.6995 24.5822 60.3714C24.9511 58.9105 25.9841 56.7855 26.9286 55.5459C31.1345 50.0121 39.8118 45.2162 48.7106 43.5339C51.544 43.0026 55.558 42.9436 58.598 43.4011ZM104.125 43.8585C104.656 44.0799 104.715 44.1389 104.715 44.6406C104.745 48.6693 104.656 57.8775 104.582 58.2612C104.567 58.394 103.8 58.4087 103.475 58.2907C103.269 58.2169 103.239 57.42 103.239 50.9123C103.239 46.2491 103.298 43.6224 103.387 43.6224C103.461 43.6224 103.8 43.7257 104.125 43.8585ZM110.574 51.96L111.105 52.1814L111.002 64.4C110.884 79.9684 110.869 80.4259 110.308 81.7688C109.393 83.9675 109.437 84.4102 109.526 74.7593C109.555 69.9338 109.629 65.0493 109.659 63.913C109.688 62.7768 109.718 59.5745 109.733 56.7855C109.733 53.4209 109.777 51.7387 109.88 51.7387C109.969 51.7387 110.279 51.842 110.574 51.96ZM21.8225 55.6345C21.9111 56.8298 21.8816 56.9478 21.4536 57.8923L20.9814 58.8957L20.8043 57.42C20.5239 55.059 20.5239 54.9557 21.0847 54.6015C21.3355 54.4244 21.6012 54.3064 21.6455 54.3359C21.6897 54.3654 21.7783 54.9557 21.8225 55.6345ZM12.7025 64.5328C12.8353 65.7429 13.8683 73.7706 14.3996 77.7106C15.1965 83.8052 15.2555 84.6759 14.9013 84.3069C14.857 84.2627 14.5176 82.2115 14.1634 79.7471C11.8613 63.8392 11.876 63.9426 12.0679 63.8245C12.4663 63.5589 12.5992 63.7064 12.7025 64.5328ZM23.3278 71.2914C23.4163 71.6604 23.8443 75.6594 23.8443 76.1464C23.8443 76.5596 23.313 76.9433 23.0769 76.7072C23.0031 76.6334 22.8113 75.3791 22.6637 73.9329C22.5014 72.472 22.3391 70.952 22.2948 70.5536L22.2062 69.8158L22.7227 70.406C23.0179 70.7307 23.2835 71.1291 23.3278 71.2914ZM35.237 76.8548C35.3994 77.0023 35.5027 77.5926 35.6355 79.1863C35.8569 82.0639 35.8864 81.8426 35.2813 81.8426C34.6615 81.8426 34.6763 81.8868 34.4697 79.2896C34.2631 76.6482 34.2631 76.6777 34.6615 76.6777C34.8533 76.6777 35.1042 76.7662 35.237 76.8548ZM46.9249 77.0761C46.9544 77.2237 47.0282 78.1091 47.0873 79.0388C47.1315 79.9684 47.2643 82.0639 47.3824 83.6872C47.7956 89.6489 47.8104 90.4015 47.5595 90.4015C47.2791 90.4015 47.2496 90.1801 46.9249 85.9745C46.8069 84.2332 46.5855 81.4884 46.4379 79.8799C46.3051 78.2714 46.2166 76.9285 46.2608 76.899C46.4232 76.7219 46.8511 76.8548 46.9249 77.0761ZM19.181 79.9094C19.2695 80.0422 19.8303 84.7644 20.5239 91.2131C20.7305 93.161 20.9371 95.0351 20.9814 95.3893L21.0552 96.0238L20.6862 95.7877C20.4058 95.5959 20.3025 95.4041 20.3025 95.0647C20.3025 94.135 19.668 88.0109 19.181 84.2627C18.9006 82.1377 18.6792 80.2636 18.6792 80.0865C18.6792 79.7766 19.0334 79.6585 19.181 79.9094ZM104.346 86.0778L104.243 92.2461L103.874 92.7921C103.033 94.0317 103.077 94.2678 103.121 87.3616L103.151 81.0309L103.697 80.4702C103.992 80.175 104.287 79.9242 104.346 79.9242C104.39 79.9242 104.39 82.6984 104.346 86.0778ZM90.6954 95.8615C90.7692 104.435 90.7545 105.099 90.5184 105.365C90.3708 105.527 90.238 105.631 90.1937 105.586C90.0904 105.468 89.9428 86.7713 90.0609 86.668C90.1199 86.609 90.2675 86.5795 90.4003 86.5942C90.5921 86.6385 90.6364 87.6862 90.6954 95.8615ZM42.4977 89.9883C42.601 90.9032 42.9699 95.286 43.1175 97.352C43.206 98.7391 43.2061 98.7834 42.8814 98.8867C42.7043 98.9457 42.4977 98.9309 42.4387 98.8572C42.3354 98.7539 42.0107 95.4778 41.6122 90.431L41.5089 89.221H41.9664C42.3944 89.221 42.4239 89.2505 42.4977 89.9883ZM30.8984 95.1532C31.0017 95.2565 31.0754 95.6254 31.0754 95.9943C31.0754 96.378 31.2525 98.3702 31.4444 100.436C32.0052 106.088 32.0494 106.855 31.7986 106.708C31.4149 106.486 31.0754 106.147 31.1492 106.058C31.1787 105.999 31.1197 105.262 31.0017 104.42C30.8984 103.565 30.7655 102.177 30.7065 101.322C30.6475 100.466 30.5147 98.9014 30.3966 97.8537C30.1162 95.2712 30.131 94.9761 30.4556 94.9761C30.6032 94.9761 30.7951 95.0499 30.8984 95.1532ZM37.8786 105.085C37.9229 105.409 38.0114 106.619 38.0705 107.77C38.1738 109.984 38.1295 110.146 37.5244 109.689C37.3474 109.556 37.2293 108.995 37.0522 107.313C36.7423 104.273 36.7275 104.391 37.3031 104.45C37.731 104.494 37.7901 104.553 37.8786 105.085Z" fill="black"/>
<path d="M32.61 50.4696C31.0752 51.1337 30.9572 53.2144 32.4034 53.9522C33.4512 54.4834 34.5137 54.2326 35.0597 53.3177C36.0927 51.6354 34.4104 49.6875 32.61 50.4696ZM42.6155 51.8862C41.1988 52.7569 41.1988 54.8524 42.6155 55.723C44.0174 56.5642 45.8326 55.4574 45.8326 53.7751C45.8326 52.1519 43.9732 51.0599 42.6155 51.8862Z" fill="black"/>
</g>
<defs>
<clipPath id="clip0">
<rect width="120" height="120" fill="white"/>
</clipPath>
</defs>
</svg>
