<svg width="120" height="120" viewBox="0 0 120 120" fill="none" xmlns="http://www.w3.org/2000/svg">
<path fill-rule="evenodd" clip-rule="evenodd" d="M0 0H120V120H0V0ZM91.7333 100.598C86.1714 100.598 83.0267 97.6971 80.6095 93.7505L71.4457 99.0743C74.7562 105.615 81.5219 110.606 91.9943 110.606C102.705 110.606 110.68 105.044 110.68 94.8914C110.68 85.4743 105.27 81.2857 95.6895 77.1771L92.8705 75.9695C88.0324 73.8743 85.9371 72.5048 85.9371 69.1219C85.9371 66.3848 88.0305 64.2895 91.3333 64.2895C94.5714 64.2895 96.6571 65.6552 98.5905 69.1219L107.371 63.4838C103.657 56.9505 98.5029 54.4552 91.3333 54.4552C81.2629 54.4552 74.8191 60.8933 74.8191 69.3505C74.8191 78.5314 80.2248 82.8743 88.3619 86.341L91.181 87.5505C96.3238 89.8 99.3905 91.1695 99.3905 95.0362C99.3905 98.2629 96.4057 100.598 91.7333 100.598ZM48.0324 100.528C44.1581 100.528 42.5467 97.8705 40.7753 94.7276L31.5962 100.285C34.2553 105.912 39.4838 110.585 48.5124 110.585C58.5048 110.585 65.3505 105.27 65.3505 93.5943V55.0991H54.0743V93.4419C54.0743 99.0781 51.7372 100.528 48.0324 100.528Z" fill="black"/>
</svg>
