<svg width="123" height="123" viewBox="0 0 123 123" xmlns="http://www.w3.org/2000/svg">
<path fill-rule="evenodd" clip-rule="evenodd" d="M101.44 46.25C102.26 44.41 104.41 43.57 106.25 44.39C108.09 45.21 108.92 47.37 108.11 49.21C107.29 51.06 105.14 51.89 103.3 51.07C101.45 50.25 100.62 48.1 101.44 46.25ZM58.73 11.88C60.19 10.49 62.5 10.54 63.89 12C65.28 13.46 65.23 15.77 63.77 17.17C62.31 18.56 60.01 18.51 58.61 17.05C57.22 15.58 57.27 13.27 58.73 11.88ZM106.36 61.05C106.36 62.17 106.32 63.28 106.24 64.39H101.63C101.17 64.39 100.98 64.69 100.98 65.14V67.26C100.98 72.24 98.17 73.33 95.71 73.6C93.37 73.86 90.77 72.62 90.45 71.18C89.07 63.4 86.76 61.74 83.12 58.87C87.64 56 92.34 51.77 92.34 46.11C92.34 39.99 88.15 36.14 85.29 34.25C81.28 31.61 76.84 31.08 75.64 31.08H27.97C34.43 23.87 43.19 18.76 53.1 16.9L58.72 22.79C59.99 24.12 62.09 24.17 63.42 22.9L69.71 16.89C82.88 19.34 94.04 27.54 100.46 38.79L96.16 48.51C95.42 50.19 96.18 52.16 97.85 52.91L106.14 56.59C106.29 58.05 106.36 59.54 106.36 61.05ZM51.26 53.43V44.97H66.42C67.2 44.97 71.95 45.88 71.95 49.42C71.95 52.37 68.31 53.42 65.32 53.42L51.26 53.43ZM16.77 56.22L24.63 52.73C26.31 51.98 27.07 50.02 26.32 48.33L24.7 44.67H31.07V73.37H18.23C17.12 69.45 16.52 65.32 16.52 61.05C16.51 59.41 16.6 57.8 16.77 56.22ZM21.05 46.07C21.87 47.91 21.04 50.08 19.19 50.89C17.35 51.71 15.19 50.88 14.38 49.03C13.56 47.18 14.39 45.03 16.24 44.21C18.08 43.39 20.24 44.23 21.05 46.07ZM34.98 102.55C33.01 102.98 31.07 101.72 30.65 99.75C30.23 97.77 31.48 95.83 33.45 95.41C35.42 94.99 37.36 96.24 37.78 98.22C38.2 100.18 36.95 102.13 34.98 102.55ZM85.76 90.87C83.96 90.48 82.19 91.63 81.81 93.43L79.98 101.98C74.33 104.55 68.05 105.97 61.44 105.97C54.68 105.97 48.27 104.47 42.51 101.8L40.68 93.25C40.29 91.45 38.53 90.31 36.73 90.69L29.18 92.31C27.78 90.87 26.48 89.33 25.28 87.71H62C62.42 87.71 62.69 87.63 62.69 87.26V74.27C62.69 73.89 62.41 73.82 62 73.82H51.26V65.59H62.87C63.93 65.59 68.54 65.89 70.01 71.78C70.47 73.59 71.48 79.48 72.18 81.37C72.87 83.49 75.68 87.71 78.68 87.71H96.97C97.18 87.71 97.4 87.69 97.63 87.64C96.36 89.36 94.97 91 93.47 92.52L85.76 90.87ZM87.51 102.73C85.54 102.3 84.29 100.36 84.71 98.39C85.13 96.42 87.07 95.16 89.04 95.59C91.01 96.01 92.27 97.96 91.84 99.93C91.42 101.89 89.48 103.15 87.51 102.73ZM122.04 59.93L116.88 56.74C116.84 56.24 116.79 55.74 116.73 55.24L121.16 51.11C121.61 50.69 121.81 50.07 121.69 49.47C121.57 48.87 121.15 48.37 120.57 48.15L114.9 46.03C114.76 45.54 114.61 45.05 114.46 44.57L117.99 39.66C118.35 39.16 118.42 38.51 118.19 37.94C117.96 37.37 117.44 36.97 116.84 36.87L110.86 35.9C110.63 35.45 110.39 35 110.14 34.56L112.65 29.05C112.91 28.49 112.85 27.84 112.51 27.33C112.17 26.82 111.59 26.52 110.97 26.54L104.9 26.75C104.59 26.36 104.27 25.97 103.94 25.59L105.33 19.68C105.47 19.08 105.29 18.45 104.86 18.02C104.43 17.59 103.8 17.41 103.2 17.55L97.29 18.94C96.91 18.62 96.52 18.3 96.13 17.98L96.34 11.91C96.36 11.3 96.06 10.71 95.55 10.37C95.04 10.03 94.39 9.98 93.83 10.23L88.32 12.74C87.88 12.5 87.43 12.25 86.98 12.02L86.01 6.04C85.91 5.43 85.51 4.92 84.94 4.69C84.37 4.45 83.72 4.53 83.22 4.89L78.31 8.43C77.83 8.28 77.34 8.13 76.85 7.99L74.74 2.3C74.53 1.72 74.03 1.3 73.42 1.18C72.82 1.06 72.2 1.26 71.78 1.71L67.64 6.15C67.14 6.09 66.64 6.04 66.14 6L62.95 0.84C62.63 0.32 62.06 0 61.44 0C60.82 0 60.25 0.32 59.93 0.84L56.74 6C56.24 6.04 55.74 6.09 55.24 6.15L51.1 1.71C50.68 1.26 50.06 1.06 49.46 1.18C48.86 1.3 48.36 1.72 48.14 2.3L46.02 7.97C45.53 8.11 45.04 8.26 44.56 8.41L39.65 4.87C39.15 4.51 38.5 4.43 37.93 4.67C37.36 4.9 36.96 5.42 36.86 6.02L35.89 12C35.44 12.23 34.99 12.47 34.55 12.72L29.04 10.21C28.48 9.95 27.83 10.01 27.32 10.35C26.81 10.69 26.51 11.27 26.53 11.89L26.74 17.96C26.35 18.27 25.96 18.59 25.58 18.92L19.67 17.53C19.07 17.39 18.44 17.57 18.01 18C17.57 18.44 17.4 19.06 17.54 19.66L18.93 25.57C18.61 25.95 18.29 26.34 17.97 26.73L11.9 26.52C11.29 26.5 10.7 26.8 10.36 27.31C10.02 27.82 9.97 28.47 10.22 29.03L12.73 34.54C12.49 34.98 12.24 35.43 12.01 35.88L6.03 36.85C5.42 36.95 4.91 37.35 4.68 37.92C4.45 38.49 4.52 39.14 4.88 39.64L8.42 44.55C8.27 45.03 8.12 45.52 7.98 46.01L2.3 48.14C1.72 48.35 1.3 48.85 1.18 49.46C1.06 50.06 1.26 50.68 1.71 51.1L6.14 55.23C6.09 55.73 6.04 56.23 5.99 56.73L0.83 59.92C0.32 60.26 0 60.83 0 61.44C0 62.06 0.32 62.63 0.84 62.95L6 66.14C6.04 66.64 6.09 67.14 6.15 67.64L1.72 71.78C1.27 72.2 1.07 72.82 1.19 73.42C1.31 74.02 1.73 74.52 2.31 74.74L7.98 76.86C8.12 77.35 8.27 77.84 8.42 78.32L4.88 83.23C4.52 83.73 4.44 84.38 4.68 84.95C4.92 85.52 5.43 85.93 6.04 86.02L12.01 87C12.24 87.45 12.48 87.9 12.73 88.34L10.22 93.85C9.96 94.41 10.02 95.06 10.36 95.57C10.7 96.08 11.29 96.38 11.9 96.36L17.96 96.15C18.28 96.54 18.59 96.93 18.92 97.31L17.53 103.22C17.39 103.82 17.57 104.44 18 104.88C18.43 105.32 19.06 105.49 19.66 105.35L25.57 103.96C25.95 104.29 26.34 104.6 26.73 104.92L26.52 110.99C26.5 111.6 26.8 112.19 27.31 112.53C27.82 112.87 28.47 112.92 29.03 112.67L34.54 110.16C34.98 110.41 35.43 110.65 35.88 110.88L36.85 116.85C36.95 117.46 37.35 117.97 37.92 118.21C38.49 118.45 39.14 118.37 39.64 118.01L44.55 114.47C45.03 114.62 45.52 114.77 46.01 114.92L48.13 120.59C48.34 121.17 48.84 121.59 49.45 121.71C50.05 121.83 50.67 121.63 51.09 121.18L55.23 116.75C55.73 116.81 56.23 116.86 56.73 116.9L59.92 122.06C60.24 122.58 60.81 122.9 61.43 122.9C62.05 122.9 62.62 122.58 62.94 122.06L66.13 116.9C66.63 116.86 67.13 116.81 67.63 116.75L71.77 121.18C72.19 121.63 72.81 121.83 73.41 121.71C74.01 121.59 74.51 121.17 74.73 120.59L76.85 114.92C77.34 114.78 77.83 114.63 78.31 114.47L83.22 118.01C83.72 118.37 84.37 118.44 84.94 118.21C85.51 117.98 85.91 117.46 86.01 116.85L86.98 110.88C87.43 110.65 87.88 110.4 88.32 110.16L93.83 112.67C94.39 112.93 95.04 112.87 95.55 112.53C96.06 112.19 96.36 111.61 96.34 110.99L96.13 104.92C96.52 104.61 96.91 104.29 97.29 103.96L103.2 105.35C103.8 105.49 104.43 105.32 104.86 104.88C105.3 104.44 105.47 103.82 105.33 103.22L103.94 97.31C104.26 96.93 104.58 96.54 104.9 96.15L110.97 96.36C111.58 96.38 112.17 96.08 112.51 95.57C112.85 95.06 112.91 94.41 112.65 93.85L110.14 88.34C110.39 87.89 110.63 87.45 110.86 87L116.84 86.03C117.45 85.93 117.96 85.53 118.19 84.96C118.43 84.39 118.35 83.74 117.99 83.24L114.45 78.33C114.6 77.84 114.75 77.36 114.89 76.87L120.56 74.75C121.14 74.53 121.56 74.04 121.68 73.43C121.8 72.83 121.6 72.21 121.15 71.79L116.72 67.65C116.77 67.15 116.82 66.65 116.87 66.15L122.03 62.96C122.55 62.64 122.87 62.07 122.87 61.45C122.88 60.83 122.56 60.26 122.04 59.93Z" fill="currentColor"/>
</svg>
